<?xml version="1.0" encoding="utf-8"?>
<!-- Generator: Adobe Illustrator 24.0.1, SVG Export Plug-In . SVG Version: 6.00 Build 0)  -->
<svg version="1.1" id="图层_1" xmlns="http://www.w3.org/2000/svg" xmlns:xlink="http://www.w3.org/1999/xlink" x="0px" y="0px"
	 viewBox="0 0 300 300" style="enable-background:new 0 0 300 300;" xml:space="preserve">
<style type="text/css">
	.st0{fill:#D4AF37;}
</style>
<g>
	<circle class="st0" cx="150" cy="150" r="149.5"/>
	<path d="M150,1c39.8,0,77.22,15.5,105.36,43.64S299,110.2,299,150s-15.5,77.22-43.64,105.36S189.8,299,150,299
		s-77.22-15.5-105.36-43.64S1,189.8,1,150S16.5,72.78,44.64,44.64S110.2,1,150,1 M150,0C67.16,0,0,67.16,0,150s67.16,150,150,150
		s150-67.16,150-150S232.84,0,150,0L150,0z"/>
</g>
<g>
	<circle class="st0" cx="150" cy="150" r="49.5"/>
	<path d="M150,101c27.02,0,49,21.98,49,49s-21.98,49-49,49s-49-21.98-49-49S122.98,101,150,101 M150,100c-27.61,0-50,22.39-50,50
		s22.39,50,50,50s50-22.39,50-50S177.61,100,150,100L150,100z"/>
</g>
</svg>
