<?xml version="1.0" encoding="utf-8"?>
<!-- Generator: Adobe Illustrator 24.0.1, SVG Export Plug-In . SVG Version: 6.00 Build 0)  -->
<svg version="1.1" id="图层_1" xmlns="http://www.w3.org/2000/svg" xmlns:xlink="http://www.w3.org/1999/xlink" x="0px" y="0px"
	 viewBox="0 0 12000 7500" style="enable-background:new 0 0 12000 7500;" xml:space="preserve">
<style type="text/css">
	.st0{fill:#8FE7FF;}
	.st1{fill:none;stroke:#000000;stroke-width:10;stroke-miterlimit:10;}
	.st2{fill:#FFFFFF;}
	.st3{fill:#0B26F5;}
	.st4{fill:#FFFF00;}
	.st5{fill:#5AC8FF;stroke:#000000;stroke-width:10;stroke-miterlimit:10;}
	.st6{fill:#F5792B;}
	.st7{fill:#D4AF37;}
</style>
<g id="大区">
	<rect x="0.13" y="1502.75" class="st0" width="11999" height="5999"/>
	<path d="M11998.63,1503.25v5998H0.63v-5998H11998.63 M11999.63,1502.25H-0.38v6000h12000V1502.25L11999.63,1502.25z"/>
</g>
<polygon id="边框" class="st1" points="-0.37,1502.25 -0.38,7502.25 11999.63,7502.25 11999.63,1502.25 7499.63,1502.25 
	7499.63,2.25 4499.63,2.25 4499.63,1502.25 "/>
<g id="环区_2_">
	<rect x="0.13" y="7002.75" class="st2" width="499" height="499"/>
	<path d="M498.63,7003.25v498h-498v-498H498.63 M499.63,7002.25h-500v500h500V7002.25L499.63,7002.25z"/>
</g>
<g id="环区_1_">
	<rect x="11500.13" y="7002.75" class="st2" width="499" height="499"/>
	<path d="M11998.63,7003.25v498h-498v-498H11998.63 M11999.63,7002.25h-500v500h500V7002.25L11999.63,7002.25z"/>
</g>
<g id="环区">
	<rect x="5494.63" y="2997.25" class="st2" width="1010" height="510"/>
	<path d="M6499.63,3002.25v500h-1000v-500H6499.63 M6509.63,2992.25h-10h-1000h-10v10v500v10h10h1000h10v-10v-500V2992.25
		L6509.63,2992.25z"/>
</g>
<g id="启动区">
	<rect x="5250.13" y="6502.75" class="st3" width="1499" height="999"/>
	<path d="M6748.63,6503.25v998h-1498v-998H6748.63 M6749.63,6502.25h-1500v1000h1500V6502.25L6749.63,6502.25z"/>
</g>
<g id="重试区">
	<rect x="11500.13" y="1502.75" class="st4" width="499" height="499"/>
	<path d="M11998.63,1503.25v498h-498v-498H11998.63 M11999.63,1502.25h-500v500h500V1502.25L11999.63,1502.25z"/>
</g>
<polygon id="河" class="st5" points="2599.63,1502.25 2006.84,1503.29 1999.63,5502.25 9999.63,5502.25 9999.63,1503.29 
	9399.63,1503.29 9399.63,4902.25 2599.63,4902.25 "/>
<g id="吴哥区">
	<rect x="4494.63" y="-2.75" class="st6" width="3010" height="3010"/>
	<path d="M7499.63,2.25v3000h-3000V2.25H7499.63 M7509.63-7.75h-10h-3000h-10v10v3000v10h10h3000h10v-10V2.25V-7.75L7509.63-7.75z"
		/>
</g>
<g id="波兰人">
	<g>
		<circle class="st7" cx="2799.63" cy="4702.25" r="155"/>
		<path d="M2799.63,4552.25c82.84,0,150,67.16,150,150s-67.16,150-150,150s-150-67.16-150-150S2716.78,4552.25,2799.63,4552.25
			 M2799.63,4542.25c-42.74,0-82.92,16.64-113.14,46.86c-30.22,30.22-46.86,70.4-46.86,113.14s16.64,82.92,46.86,113.14
			c30.22,30.22,70.4,46.86,113.14,46.86s82.92-16.64,113.14-46.86c30.22-30.22,46.86-70.4,46.86-113.14s-16.64-82.92-46.86-113.14
			C2882.54,4558.89,2842.36,4542.25,2799.63,4542.25L2799.63,4542.25z"/>
	</g>
	<g>
		<circle class="st7" cx="2799.63" cy="4702.25" r="55"/>
		<path d="M2799.63,4652.25c27.61,0,50,22.39,50,50s-22.39,50-50,50s-50-22.39-50-50S2772.01,4652.25,2799.63,4652.25
			 M2799.63,4642.25c-33.08,0-60,26.92-60,60s26.92,60,60,60s60-26.92,60-60S2832.71,4642.25,2799.63,4642.25L2799.63,4642.25z"/>
	</g>
</g>
<g id="波兰人_1_">
	<g>
		<circle class="st7" cx="7299.63" cy="202.25" r="155"/>
		<path d="M7299.63,52.25c82.84,0,150,67.16,150,150s-67.16,150-150,150s-150-67.16-150-150S7216.78,52.25,7299.63,52.25
			 M7299.63,42.25c-42.74,0-82.92,16.64-113.14,46.86c-30.22,30.22-46.86,70.4-46.86,113.14s16.64,82.92,46.86,113.14
			c30.22,30.22,70.4,46.86,113.14,46.86s82.92-16.64,113.14-46.86c30.22-30.22,46.86-70.4,46.86-113.14s-16.64-82.92-46.86-113.14
			C7382.54,58.89,7342.36,42.25,7299.63,42.25L7299.63,42.25z"/>
	</g>
	<g>
		<circle class="st7" cx="7299.63" cy="202.25" r="55"/>
		<path d="M7299.63,152.25c27.61,0,50,22.39,50,50s-22.39,50-50,50s-50-22.39-50-50S7272.01,152.25,7299.63,152.25 M7299.63,142.25
			c-33.08,0-60,26.92-60,60s26.92,60,60,60s60-26.92,60-60S7332.71,142.25,7299.63,142.25L7299.63,142.25z"/>
	</g>
</g>
<g id="波兰人_2_">
	<g>
		<circle class="st7" cx="5999.63" cy="1502.25" r="155"/>
		<path d="M5999.63,1352.25c82.84,0,150,67.16,150,150c0,82.84-67.16,150-150,150s-150-67.16-150-150
			C5849.63,1419.41,5916.78,1352.25,5999.63,1352.25 M5999.63,1342.25c-42.74,0-82.92,16.64-113.14,46.86
			c-30.22,30.22-46.86,70.4-46.86,113.14s16.64,82.92,46.86,113.14c30.22,30.22,70.4,46.86,113.14,46.86s82.92-16.64,113.14-46.86
			c30.22-30.22,46.86-70.4,46.86-113.14s-16.64-82.92-46.86-113.14C6082.54,1358.89,6042.36,1342.25,5999.63,1342.25
			L5999.63,1342.25z"/>
	</g>
	<g>
		<circle class="st7" cx="5999.63" cy="1502.25" r="55"/>
		<path d="M5999.63,1452.25c27.61,0,50,22.39,50,50s-22.39,50-50,50s-50-22.39-50-50S5972.01,1452.25,5999.63,1452.25
			 M5999.63,1442.25c-33.08,0-60,26.92-60,60s26.92,60,60,60s60-26.92,60-60S6032.71,1442.25,5999.63,1442.25L5999.63,1442.25z"/>
	</g>
</g>
<g id="波兰人_3_">
	<g>
		<circle class="st7" cx="4699.63" cy="2802.25" r="155"/>
		<path d="M4699.63,2652.25c82.84,0,150,67.16,150,150s-67.16,150-150,150s-150-67.16-150-150S4616.78,2652.25,4699.63,2652.25
			 M4699.63,2642.25c-42.74,0-82.92,16.64-113.14,46.86c-30.22,30.22-46.86,70.4-46.86,113.14s16.64,82.92,46.86,113.14
			c30.22,30.22,70.4,46.86,113.14,46.86s82.92-16.64,113.14-46.86c30.22-30.22,46.86-70.4,46.86-113.14s-16.64-82.92-46.86-113.14
			C4782.54,2658.89,4742.36,2642.25,4699.63,2642.25L4699.63,2642.25z"/>
	</g>
	<g>
		<circle class="st7" cx="4699.63" cy="2802.25" r="55"/>
		<path d="M4699.63,2752.25c27.61,0,50,22.39,50,50s-22.39,50-50,50s-50-22.39-50-50S4672.01,2752.25,4699.63,2752.25
			 M4699.63,2742.25c-33.08,0-60,26.92-60,60s26.92,60,60,60s60-26.92,60-60S4732.71,2742.25,4699.63,2742.25L4699.63,2742.25z"/>
	</g>
</g>
<g id="波兰人_4_">
	<g>
		<circle class="st7" cx="4699.63" cy="202.25" r="155"/>
		<path d="M4699.63,52.25c82.84,0,150,67.16,150,150s-67.16,150-150,150s-150-67.16-150-150S4616.78,52.25,4699.63,52.25
			 M4699.63,42.25c-42.74,0-82.92,16.64-113.14,46.86c-30.22,30.22-46.86,70.4-46.86,113.14s16.64,82.92,46.86,113.14
			c30.22,30.22,70.4,46.86,113.14,46.86s82.92-16.64,113.14-46.86c30.22-30.22,46.86-70.4,46.86-113.14s-16.64-82.92-46.86-113.14
			C4782.54,58.89,4742.36,42.25,4699.63,42.25L4699.63,42.25z"/>
	</g>
	<g>
		<circle class="st7" cx="4699.63" cy="202.25" r="55"/>
		<path d="M4699.63,152.25c27.61,0,50,22.39,50,50s-22.39,50-50,50s-50-22.39-50-50S4672.01,152.25,4699.63,152.25 M4699.63,142.25
			c-33.08,0-60,26.92-60,60s26.92,60,60,60s60-26.92,60-60S4732.71,142.25,4699.63,142.25L4699.63,142.25z"/>
	</g>
</g>
<g id="波兰人_5_">
	<g>
		<circle class="st7" cx="7299.63" cy="2802.25" r="155"/>
		<path d="M7299.63,2652.25c82.84,0,150,67.16,150,150s-67.16,150-150,150s-150-67.16-150-150S7216.78,2652.25,7299.63,2652.25
			 M7299.63,2642.25c-42.74,0-82.92,16.64-113.14,46.86c-30.22,30.22-46.86,70.4-46.86,113.14s16.64,82.92,46.86,113.14
			c30.22,30.22,70.4,46.86,113.14,46.86s82.92-16.64,113.14-46.86c30.22-30.22,46.86-70.4,46.86-113.14s-16.64-82.92-46.86-113.14
			C7382.54,2658.89,7342.36,2642.25,7299.63,2642.25L7299.63,2642.25z"/>
	</g>
	<g>
		<circle class="st7" cx="7299.63" cy="2802.25" r="55"/>
		<path d="M7299.63,2752.25c27.61,0,50,22.39,50,50s-22.39,50-50,50s-50-22.39-50-50S7272.01,2752.25,7299.63,2752.25
			 M7299.63,2742.25c-33.08,0-60,26.92-60,60s26.92,60,60,60s60-26.92,60-60S7332.71,2742.25,7299.63,2742.25L7299.63,2742.25z"/>
	</g>
</g>
<g id="波兰人_6_">
	<g>
		<circle class="st7" cx="9199.63" cy="4702.25" r="155"/>
		<path d="M9199.63,4552.25c82.84,0,150,67.16,150,150s-67.16,150-150,150s-150-67.16-150-150S9116.78,4552.25,9199.63,4552.25
			 M9199.63,4542.25c-42.74,0-82.92,16.64-113.14,46.86c-30.22,30.22-46.86,70.4-46.86,113.14s16.64,82.92,46.86,113.14
			c30.22,30.22,70.4,46.86,113.14,46.86s82.92-16.64,113.14-46.86c30.22-30.22,46.86-70.4,46.86-113.14s-16.64-82.92-46.86-113.14
			C9282.54,4558.89,9242.36,4542.25,9199.63,4542.25L9199.63,4542.25z"/>
	</g>
	<g>
		<circle class="st7" cx="9199.63" cy="4702.25" r="55"/>
		<path d="M9199.63,4652.25c27.61,0,50,22.39,50,50s-22.39,50-50,50s-50-22.39-50-50S9172.01,4652.25,9199.63,4652.25
			 M9199.63,4642.25c-33.08,0-60,26.92-60,60s26.92,60,60,60s60-26.92,60-60S9232.71,4642.25,9199.63,4642.25L9199.63,4642.25z"/>
	</g>
</g>
<g id="波兰人_7_">
	<g>
		<circle class="st7" cx="5999.63" cy="4702.25" r="155"/>
		<path d="M5999.63,4552.25c82.84,0,150,67.16,150,150s-67.16,150-150,150s-150-67.16-150-150S5916.78,4552.25,5999.63,4552.25
			 M5999.63,4542.25c-42.74,0-82.92,16.64-113.14,46.86c-30.22,30.22-46.86,70.4-46.86,113.14s16.64,82.92,46.86,113.14
			c30.22,30.22,70.4,46.86,113.14,46.86s82.92-16.64,113.14-46.86c30.22-30.22,46.86-70.4,46.86-113.14s-16.64-82.92-46.86-113.14
			C6082.54,4558.89,6042.36,4542.25,5999.63,4542.25L5999.63,4542.25z"/>
	</g>
	<g>
		<circle class="st7" cx="5999.63" cy="4702.25" r="55"/>
		<path d="M5999.63,4652.25c27.61,0,50,22.39,50,50s-22.39,50-50,50s-50-22.39-50-50S5972.01,4652.25,5999.63,4652.25
			 M5999.63,4642.25c-33.08,0-60,26.92-60,60s26.92,60,60,60s60-26.92,60-60S6032.71,4642.25,5999.63,4642.25L5999.63,4642.25z"/>
	</g>
</g>
</svg>
