<?xml version="1.0" encoding="utf-8"?>
<!-- Generator: Adobe Illustrator 24.0.1, SVG Export Plug-In . SVG Version: 6.00 Build 0)  -->
<svg version="1.1" xmlns="http://www.w3.org/2000/svg" xmlns:xlink="http://www.w3.org/1999/xlink" x="0px" y="0px"
	 viewBox="2600 2600 6800 6800" style="enable-background:new 0 0 12000 12000;" xml:space="preserve">
<style type="text/css">
	.st0{fill:#FF8176;}
	.st1{fill:#8FE7FF;}
	.st2{fill:none;stroke:#000000;stroke-width:10;stroke-miterlimit:10;}
	.st3{fill:#FFFFFF;}
	.st4{fill:#FF1403;}
	.st5{fill:#0B26F5;}
	.st6{fill:#FFFF00;}
	.st7{fill:#5AC8FF;}
	.st8{fill:#808080;}
	.st9{fill:#F5792B;}
	.st10{fill:#D4AF37;}
</style>
<g id="大区域">
	<g>
		<rect x="0.5" y="0.5" class="st0" width="5999" height="11999"/>
		<path d="M5999,1v11998H1V1H5999 M6000,0H0v12000h6000V0L6000,0z"/>
	</g>
	<g>
		<rect x="6000.5" y="0.5" class="st1" width="5999" height="11999"/>
		<path d="M11999,1v11998H6001V1H11999 M12000,0H6000v12000h6000V0L12000,0z"/>
	</g>
	<rect class="st2" width="12000" height="12000"/>
</g>
<g id="环区">
	<g>
		<rect x="0.5" y="0.5" class="st3" width="499" height="499"/>
		<path d="M499,1v498H1V1H499 M500,0H0v500h500V0L500,0z"/>
	</g>
	<g>
		<rect x="11500.5" y="0.5" class="st3" width="499" height="499"/>
		<path d="M11999,1v498h-498V1H11999 M12000,0h-500v500h500V0L12000,0z"/>
	</g>
	<g>
		<rect x="0.5" y="11500.5" class="st3" width="499" height="499"/>
		<path d="M499,11501v498H1v-498H499 M500,11500H0v500h500V11500L500,11500z"/>
	</g>
	<g>
		<rect x="11500.5" y="11500.5" class="st3" width="499" height="499"/>
		<path d="M11999,11501v498h-498v-498H11999 M12000,11500h-500v500h500V11500L12000,11500z"/>
	</g>
	<g>
		<rect x="3995" y="5495" class="st3" width="510" height="1010"/>
		<path d="M4500,5500v1000h-500V5500H4500 M4510,5490h-10h-500h-10v10v1000v10h10h500h10v-10V5500V5490L4510,5490z"/>
	</g>
	<g>
		<rect x="7495" y="5495" class="st3" width="510" height="1010"/>
		<path d="M8000,5500v1000h-500V5500H8000 M8010,5490h-10h-500h-10v10v1000v10h10h500h10v-10V5500V5490L8010,5490z"/>
	</g>
</g>
<g id="启动区">
	<g>
		<rect x="0.5" y="5250.5" class="st4" width="999" height="1499"/>
		<path d="M999,5251v1498H1V5251H999 M1000,5250H0v1500h1000V5250L1000,5250z"/>
	</g>
	<g>
		<rect x="11000.5" y="5250.5" class="st5" width="999" height="1499"/>
		<path d="M11999,5251v1498h-998V5251H11999 M12000,5250h-1000v1500h1000V5250L12000,5250z"/>
	</g>
	<g>
		<rect x="6000.5" y="0.5" class="st6" width="499" height="499"/>
		<path d="M6499,1v498h-498V1H6499 M6500,0h-500v500h500V0L6500,0z"/>
	</g>
	<g>
		<rect x="5500.5" y="11500.5" class="st6" width="499" height="499"/>
		<path d="M5999,11501v498h-498v-498H5999 M6000,11500h-500v500h500V11500L6000,11500z"/>
	</g>
</g>
<g id="河">
	<g>
		<path class="st7" d="M9400,2600v6800H2600V2600H9400 M10000,2000h-600H2600h-600v600v6800v600h600h6800h600v-600V2600V2000
			L10000,2000z"/>
	</g>
	<g>
		<path d="M9990,2010v7980H2010V2010H9990 M10000,2000H2000v8000h8000V2000L10000,2000z"/>
	</g>
	<g>
		<rect x="5995" y="1995" class="st8" width="985" height="610"/>
		<path d="M6975,2000v600h-975v-600H6975 M6985,1990h-10h-975h-10v10v600v10h10h975h10v-10v-600V1990L6985,1990z"/>
	</g>
	<g>
		<rect x="5021" y="9395" class="st8" width="985" height="610"/>
		<path d="M6001,9400v600h-975v-600H6001 M6011,9390h-10h-975h-10v10v600v10h10h975h10v-10v-600V9390L6011,9390z"/>
	</g>
	<g>
		<path d="M9390,2610v6780H2610V2610H9390 M9400,2600H2600v6800h6800V2600L9400,2600z"/>
	</g>
</g>
<g id="吴哥区">
	<g>
		<rect x="4495" y="4495" class="st9" width="3010" height="3010"/>
		<path d="M7500,4500v3000H4500V4500H7500 M7510,4490h-10H4500h-10v10v3000v10h10h3000h10v-10V4500V4490L7510,4490z"/>
	</g>
</g>
<g id="波兰人">
	<g>
		<g>
			<circle class="st10" cx="2800" cy="2800" r="155"/>
			<path d="M2800,2650c82.84,0,150,67.16,150,150s-67.16,150-150,150s-150-67.16-150-150S2717.16,2650,2800,2650 M2800,2640
				c-42.74,0-82.92,16.64-113.14,46.86S2640,2757.26,2640,2800s16.64,82.92,46.86,113.14S2757.26,2960,2800,2960
				s82.92-16.64,113.14-46.86S2960,2842.74,2960,2800s-16.64-82.92-46.86-113.14S2842.74,2640,2800,2640L2800,2640z"/>
		</g>
		<g>
			<circle class="st10" cx="2800" cy="2800" r="55"/>
			<path d="M2800,2750c27.61,0,50,22.39,50,50s-22.39,50-50,50s-50-22.39-50-50S2772.39,2750,2800,2750 M2800,2740
				c-33.08,0-60,26.92-60,60s26.92,60,60,60s60-26.92,60-60S2833.08,2740,2800,2740L2800,2740z"/>
		</g>
	</g>
	<g>
		<g>
			<circle class="st10" cx="9200" cy="2800" r="155"/>
			<path d="M9200,2650c82.84,0,150,67.16,150,150s-67.16,150-150,150s-150-67.16-150-150S9117.16,2650,9200,2650 M9200,2640
				c-42.74,0-82.92,16.64-113.14,46.86c-30.22,30.22-46.86,70.4-46.86,113.14s16.64,82.92,46.86,113.14
				c30.22,30.22,70.4,46.86,113.14,46.86s82.92-16.64,113.14-46.86c30.22-30.22,46.86-70.4,46.86-113.14s-16.64-82.92-46.86-113.14
				C9282.92,2656.64,9242.74,2640,9200,2640L9200,2640z"/>
		</g>
		<g>
			<circle class="st10" cx="9200" cy="2800" r="55"/>
			<path d="M9200,2750c27.61,0,50,22.39,50,50s-22.39,50-50,50s-50-22.39-50-50S9172.39,2750,9200,2750 M9200,2740
				c-33.08,0-60,26.92-60,60s26.92,60,60,60s60-26.92,60-60S9233.08,2740,9200,2740L9200,2740z"/>
		</g>
	</g>
	<g>
		<g>
			<circle class="st10" cx="7300" cy="7300" r="155"/>
			<path d="M7300,7150c82.84,0,150,67.16,150,150s-67.16,150-150,150s-150-67.16-150-150S7217.16,7150,7300,7150 M7300,7140
				c-42.74,0-82.92,16.64-113.14,46.86c-30.22,30.22-46.86,70.4-46.86,113.14s16.64,82.92,46.86,113.14
				c30.22,30.22,70.4,46.86,113.14,46.86s82.92-16.64,113.14-46.86c30.22-30.22,46.86-70.4,46.86-113.14s-16.64-82.92-46.86-113.14
				C7382.92,7156.64,7342.74,7140,7300,7140L7300,7140z"/>
		</g>
		<g>
			<circle class="st10" cx="7300" cy="7300" r="55"/>
			<path d="M7300,7250c27.61,0,50,22.39,50,50s-22.39,50-50,50s-50-22.39-50-50S7272.39,7250,7300,7250 M7300,7240
				c-33.08,0-60,26.92-60,60s26.92,60,60,60s60-26.92,60-60S7333.08,7240,7300,7240L7300,7240z"/>
		</g>
	</g>
	<g>
		<g>
			<circle class="st10" cx="6000" cy="6000" r="155"/>
			<path d="M6000,5850c82.84,0,150,67.16,150,150s-67.16,150-150,150s-150-67.16-150-150S5917.16,5850,6000,5850 M6000,5840
				c-42.74,0-82.92,16.64-113.14,46.86c-30.22,30.22-46.86,70.4-46.86,113.14s16.64,82.92,46.86,113.14
				c30.22,30.22,70.4,46.86,113.14,46.86s82.92-16.64,113.14-46.86c30.22-30.22,46.86-70.4,46.86-113.14s-16.64-82.92-46.86-113.14
				C6082.92,5856.64,6042.74,5840,6000,5840L6000,5840z"/>
		</g>
		<g>
			<circle class="st10" cx="6000" cy="6000" r="55"/>
			<path d="M6000,5950c27.61,0,50,22.39,50,50s-22.39,50-50,50s-50-22.39-50-50S5972.39,5950,6000,5950 M6000,5940
				c-33.08,0-60,26.92-60,60s26.92,60,60,60s60-26.92,60-60S6033.08,5940,6000,5940L6000,5940z"/>
		</g>
	</g>
	<g>
		<g>
			<circle class="st10" cx="4700" cy="4700" r="155"/>
			<path d="M4700,4550c82.84,0,150,67.16,150,150s-67.16,150-150,150s-150-67.16-150-150S4617.16,4550,4700,4550 M4700,4540
				c-42.74,0-82.92,16.64-113.14,46.86c-30.22,30.22-46.86,70.4-46.86,113.14s16.64,82.92,46.86,113.14
				c30.22,30.22,70.4,46.86,113.14,46.86s82.92-16.64,113.14-46.86c30.22-30.22,46.86-70.4,46.86-113.14s-16.64-82.92-46.86-113.14
				C4782.92,4556.64,4742.74,4540,4700,4540L4700,4540z"/>
		</g>
		<g>
			<circle class="st10" cx="4700" cy="4700" r="55"/>
			<path d="M4700,4650c27.61,0,50,22.39,50,50s-22.39,50-50,50s-50-22.39-50-50S4672.39,4650,4700,4650 M4700,4640
				c-33.08,0-60,26.92-60,60s26.92,60,60,60s60-26.92,60-60S4733.08,4640,4700,4640L4700,4640z"/>
		</g>
	</g>
	<g>
		<g>
			<circle class="st10" cx="7300" cy="4700" r="155"/>
			<path d="M7300,4550c82.84,0,150,67.16,150,150s-67.16,150-150,150s-150-67.16-150-150S7217.16,4550,7300,4550 M7300,4540
				c-42.74,0-82.92,16.64-113.14,46.86c-30.22,30.22-46.86,70.4-46.86,113.14s16.64,82.92,46.86,113.14
				c30.22,30.22,70.4,46.86,113.14,46.86s82.92-16.64,113.14-46.86c30.22-30.22,46.86-70.4,46.86-113.14s-16.64-82.92-46.86-113.14
				C7382.92,4556.64,7342.74,4540,7300,4540L7300,4540z"/>
		</g>
		<g>
			<circle class="st10" cx="7300" cy="4700" r="55"/>
			<path d="M7300,4650c27.61,0,50,22.39,50,50s-22.39,50-50,50s-50-22.39-50-50S7272.39,4650,7300,4650 M7300,4640
				c-33.08,0-60,26.92-60,60s26.92,60,60,60s60-26.92,60-60S7333.08,4640,7300,4640L7300,4640z"/>
		</g>
	</g>
	<g>
		<g>
			<circle class="st10" cx="4700" cy="7300" r="155"/>
			<path d="M4700,7150c82.84,0,150,67.16,150,150s-67.16,150-150,150s-150-67.16-150-150S4617.16,7150,4700,7150 M4700,7140
				c-42.74,0-82.92,16.64-113.14,46.86c-30.22,30.22-46.86,70.4-46.86,113.14s16.64,82.92,46.86,113.14
				c30.22,30.22,70.4,46.86,113.14,46.86s82.92-16.64,113.14-46.86c30.22-30.22,46.86-70.4,46.86-113.14s-16.64-82.92-46.86-113.14
				C4782.92,7156.64,4742.74,7140,4700,7140L4700,7140z"/>
		</g>
		<g>
			<circle class="st10" cx="4700" cy="7300" r="55"/>
			<path d="M4700,7250c27.61,0,50,22.39,50,50s-22.39,50-50,50s-50-22.39-50-50S4672.39,7250,4700,7250 M4700,7240
				c-33.08,0-60,26.92-60,60s26.92,60,60,60s60-26.92,60-60S4733.08,7240,4700,7240L4700,7240z"/>
		</g>
	</g>
	<g>
		<g>
			<circle class="st10" cx="2800" cy="9200" r="155"/>
			<path d="M2800,9050c82.84,0,150,67.16,150,150s-67.16,150-150,150s-150-67.16-150-150S2717.16,9050,2800,9050 M2800,9040
				c-42.74,0-82.92,16.64-113.14,46.86c-30.22,30.22-46.86,70.4-46.86,113.14s16.64,82.92,46.86,113.14
				c30.22,30.22,70.4,46.86,113.14,46.86s82.92-16.64,113.14-46.86c30.22-30.22,46.86-70.4,46.86-113.14s-16.64-82.92-46.86-113.14
				C2882.92,9056.64,2842.74,9040,2800,9040L2800,9040z"/>
		</g>
		<g>
			<circle class="st10" cx="2800" cy="9200" r="55"/>
			<path d="M2800,9150c27.61,0,50,22.39,50,50s-22.39,50-50,50s-50-22.39-50-50S2772.39,9150,2800,9150 M2800,9140
				c-33.08,0-60,26.92-60,60s26.92,60,60,60s60-26.92,60-60S2833.08,9140,2800,9140L2800,9140z"/>
		</g>
	</g>
	<g>
		<g>
			<circle class="st10" cx="9200" cy="9200" r="155"/>
			<path d="M9200,9050c82.84,0,150,67.16,150,150s-67.16,150-150,150s-150-67.16-150-150S9117.16,9050,9200,9050 M9200,9040
				c-42.74,0-82.92,16.64-113.14,46.86c-30.22,30.22-46.86,70.4-46.86,113.14s16.64,82.92,46.86,113.14
				c30.22,30.22,70.4,46.86,113.14,46.86s82.92-16.64,113.14-46.86c30.22-30.22,46.86-70.4,46.86-113.14s-16.64-82.92-46.86-113.14
				C9282.92,9056.64,9242.74,9040,9200,9040L9200,9040z"/>
		</g>
		<g>
			<circle class="st10" cx="9200" cy="9200" r="55"/>
			<path d="M9200,9150c27.61,0,50,22.39,50,50s-22.39,50-50,50s-50-22.39-50-50S9172.39,9150,9200,9150 M9200,9140
				c-33.08,0-60,26.92-60,60s26.92,60,60,60s60-26.92,60-60S9233.08,9140,9200,9140L9200,9140z"/>
		</g>
	</g>
	<g>
		<g>
			<circle class="st10" cx="9200" cy="6000" r="155"/>
			<path d="M9200,5850c82.84,0,150,67.16,150,150s-67.16,150-150,150s-150-67.16-150-150S9117.16,5850,9200,5850 M9200,5840
				c-42.74,0-82.92,16.64-113.14,46.86c-30.22,30.22-46.86,70.4-46.86,113.14s16.64,82.92,46.86,113.14
				c30.22,30.22,70.4,46.86,113.14,46.86s82.92-16.64,113.14-46.86c30.22-30.22,46.86-70.4,46.86-113.14s-16.64-82.92-46.86-113.14
				C9282.92,5856.64,9242.74,5840,9200,5840L9200,5840z"/>
		</g>
		<g>
			<circle class="st10" cx="9200" cy="6000" r="55"/>
			<path d="M9200,5950c27.61,0,50,22.39,50,50s-22.39,50-50,50s-50-22.39-50-50S9172.39,5950,9200,5950 M9200,5940
				c-33.08,0-60,26.92-60,60s26.92,60,60,60s60-26.92,60-60S9233.08,5940,9200,5940L9200,5940z"/>
		</g>
	</g>
	<g>
		<g>
			<circle class="st10" cx="2800" cy="6000" r="155"/>
			<path d="M2800,5850c82.84,0,150,67.16,150,150s-67.16,150-150,150s-150-67.16-150-150S2717.16,5850,2800,5850 M2800,5840
				c-42.74,0-82.92,16.64-113.14,46.86c-30.22,30.22-46.86,70.4-46.86,113.14s16.64,82.92,46.86,113.14
				c30.22,30.22,70.4,46.86,113.14,46.86s82.92-16.64,113.14-46.86c30.22-30.22,46.86-70.4,46.86-113.14s-16.64-82.92-46.86-113.14
				C2882.92,5856.64,2842.74,5840,2800,5840L2800,5840z"/>
		</g>
		<g>
			<circle class="st10" cx="2800" cy="6000" r="55"/>
			<path d="M2800,5950c27.61,0,50,22.39,50,50s-22.39,50-50,50s-50-22.39-50-50S2772.39,5950,2800,5950 M2800,5940
				c-33.08,0-60,26.92-60,60s26.92,60,60,60s60-26.92,60-60S2833.08,5940,2800,5940L2800,5940z"/>
		</g>
	</g>
</g>
</svg>
