<?xml version="1.0" encoding="utf-8"?>
<!-- Generator: Adobe Illustrator 24.0.1, SVG Export Plug-In . SVG Version: 6.00 Build 0)  -->
<svg version="1.1" id="图层_1" xmlns="http://www.w3.org/2000/svg" xmlns:xlink="http://www.w3.org/1999/xlink" x="0px"
    y="0px" viewBox="0 0 340 340" xml:space="preserve">

    <path d="M0,150 h50 A100,100 0 0,1 150,50 v -50A150 150, 0 0,0 0,150z" fill="#fff" stroke="blue" stroke-width="0" />

    <path d="M0,190 h50 A100,100 0 0,0 150,290 v 50A150 150, 0 0,1 0,190z" fill="#fff" stroke="blue" stroke-width="0" />

    <path d="M340,150 h-50 A100,100 0 0,0 190,50 v -50A150 150, 0 0,1 340,150z" fill="#fff" stroke="blue" stroke-width="0" />

    <path d="M340,190 h-50 A100,100 0 0,1 190,290 v 50A150 150, 0 0,0 340,190z" fill="#fff" stroke="blue" stroke-width="0" />

    <circle cx="170" cy="170" r="50" fill="#fff" stroke="blue" stroke-width="0" />
</svg>